+ filenameToUse=/home/horvathandras/vatic/vatic/public/videouploads/DJI_0009_valtok_homokmegy_20180518_napos_kalaszos_T3.avi
+ filenameNoDot=DJI_0009_valtok_homokmegy_20180518_napos_kalaszos_T3
+ FullUploadPath=/home/horvathandras/vatic/vatic/public/videouploads/DJI_0009_valtok_homokmegy_20180518_napos_kalaszos_T3.avi
+ VideoDataDir=/home/horvathandras/vatic/vatic/videos
+ AvailableObjectTypes='PozitívROI NegatívROI Túrás ~Friss ~1-2Hetes ~Régebbi ~Egyéb1 ~Egyéb2 ~Egyéb3 Rágás ~Friss ~1-2Hetes ~Régebbi ~Egyéb1 ~Egyéb2 ~Egyéb3 Törés ~Friss ~1-2Hetes ~Régebbi ~Egyéb1 ~Egyéb2 ~Egyéb3 Taposás ~Friss ~1-2Hetes ~Régebbi ~Egyéb1 ~Egyéb2 ~Egyéb3 EgészségesNövény Egyéb1 Egyéb2 Egyéb3 Egyéb4 Egyéb5 Bizonytalan Művelőút Gktaposás Vetőhiba Széldöntés Jégkár Belvíz Aszály Erózió EgyszikűGyom KétszikűGyom EgyébNövvédelmiPR'
++ dirname /home/horvathandras/vatic/vatic/vatic_publisher.sh
+ cd /home/horvathandras/vatic/vatic
+ touch /home/horvathandras/vatic/vatic/public/videouploads/DJI_0009_valtok_homokmegy_20180518_napos_kalaszos_T3.avi
+ chmod 744 /home/horvathandras/vatic/vatic/public/videouploads/DJI_0009_valtok_homokmegy_20180518_napos_kalaszos_T3.avi
+ mkdir /home/horvathandras/vatic/vatic/videos/DJI_0009_valtok_homokmegy_20180518_napos_kalaszos_T3
+ turkic extract /home/horvathandras/vatic/vatic/public/videouploads/DJI_0009_valtok_homokmegy_20180518_napos_kalaszos_T3.avi /home/horvathandras/vatic/vatic/videos/DJI_0009_valtok_homokmegy_20180518_napos_kalaszos_T3 --no-resize
ffmpeg version 2.8.14-0ubuntu0.16.04.1 Copyright (c) 2000-2018 the FFmpeg developers
  built with gcc 5.4.0 (Ubuntu 5.4.0-6ubuntu1~16.04.9) 20160609
  configuration: --prefix=/usr --extra-version=0ubuntu0.16.04.1 --build-suffix=-ffmpeg --toolchain=hardened --libdir=/usr/lib/x86_64-linux-gnu --incdir=/usr/include/x86_64-linux-gnu --cc=cc --cxx=g++ --enable-gpl --enable-shared --disable-stripping --disable-decoder=libopenjpeg --disable-decoder=libschroedinger --enable-avresample --enable-avisynth --enable-gnutls --enable-ladspa --enable-libass --enable-libbluray --enable-libbs2b --enable-libcaca --enable-libcdio --enable-libflite --enable-libfontconfig --enable-libfreetype --enable-libfribidi --enable-libgme --enable-libgsm --enable-libmodplug --enable-libmp3lame --enable-libopenjpeg --enable-libopus --enable-libpulse --enable-librtmp --enable-libschroedinger --enable-libshine --enable-libsnappy --enable-libsoxr --enable-libspeex --enable-libssh --enable-libtheora --enable-libtwolame --enable-libvorbis --enable-libvpx --enable-libwavpack --enable-libwebp --enable-libx265 --enable-libxvid --enable-libzvbi --enable-openal --enable-opengl --enable-x11grab --enable-libdc1394 --enable-libiec61883 --enable-libzmq --enable-frei0r --enable-libx264 --enable-libopencv
  libavutil      54. 31.100 / 54. 31.100
  libavcodec     56. 60.100 / 56. 60.100
  libavformat    56. 40.101 / 56. 40.101
  libavdevice    56.  4.100 / 56.  4.100
  libavfilter     5. 40.101 /  5. 40.101
  libavresample   2.  1.  0 /  2.  1.  0
  libswscale      3.  1.101 /  3.  1.101
  libswresample   1.  2.101 /  1.  2.101
  libpostproc    53.  3.100 / 53.  3.100
Input #0, mov,mp4,m4a,3gp,3g2,mj2, from '/home/horvathandras/vatic/vatic/public/videouploads/DJI_0009_valtok_homokmegy_20180518_napos_kalaszos_T3.avi':
  Metadata:
    major_brand     : qt  
    minor_version   : 537986816
    compatible_brands: qt  
    creation_time   : 2018-05-18 10:37:28
    location        : +46.494365+19.144070+31.100
    location-{    : +46.494365+19.144070+31.100
    comment         : DE=None, Mode=P, DSW=0001
  Duration: 00:00:22.62, start: 0.000000, bitrate: 101078 kb/s
    Stream #0:0(eng): Video: h264 (High) (avc1 / 0x31637661), yuv420p(tv, bt709), 4096x2160 [SAR 1:1 DAR 256:135], 100923 kb/s, 59.94 fps, 59.94 tbr, 60k tbn, 119.88 tbc (default)
    Metadata:
      creation_time   : 2018-05-18 10:37:28
      handler_name    : DJI.AVC
      encoder         : AVC encoder
    Stream #0:1(eng): Data: none (priv / 0x76697270), 141 kb/s
    Metadata:
      creation_time   : 2018-05-18 10:37:28
      handler_name    : DJI.Meta
Please use -b:a or -b:v, -b is ambiguous
[swscaler @ 0x2515b00] deprecated pixel format used, make sure you did set range correctly
Output #0, image2, to '/tmp/pyvision-ffmpeg-530788157/%d.jpg':
  Metadata:
    major_brand     : qt  
    minor_version   : 537986816
    compatible_brands: qt  
    comment         : DE=None, Mode=P, DSW=0001
    location        : +46.494365+19.144070+31.100
    location-{    : +46.494365+19.144070+31.100
    encoder         : Lavf56.40.101
    Stream #0:0(eng): Video: mjpeg, yuvj420p(pc), 4096x2160 [SAR 1:1 DAR 256:135], q=2-31, 10000 kb/s, 59.94 fps, 59.94 tbn, 59.94 tbc (default)
    Metadata:
      creation_time   : 2018-05-18 10:37:28
      handler_name    : DJI.AVC
      encoder         : Lavc56.60.100 mjpeg
Stream mapping:
  Stream #0:0 -> #0:0 (h264 (native) -> mjpeg (native))
Press [q] to stop, [?] for help
frame=    1 fps=0.0 q=15.2 size=N/A time=00:00:00.01 bitrate=N/A    frame=    5 fps=4.7 q=24.7 size=N/A time=00:00:00.08 bitrate=N/A    frame=   10 fps=6.1 q=24.8 size=N/A time=00:00:00.16 bitrate=N/A    frame=   15 fps=6.8 q=24.8 size=N/A time=00:00:00.25 bitrate=N/A    frame=   20 fps=7.2 q=24.8 size=N/A time=00:00:00.33 bitrate=N/A    frame=   25 fps=7.4 q=24.8 size=N/A time=00:00:00.41 bitrate=N/A    frame=   30 fps=7.6 q=24.8 size=N/A time=00:00:00.50 bitrate=N/A    frame=   35 fps=7.8 q=24.8 size=N/A time=00:00:00.58 bitrate=N/A    frame=   40 fps=7.9 q=24.8 size=N/A time=00:00:00.66 bitrate=N/A    frame=   45 fps=8.0 q=24.8 size=N/A time=00:00:00.75 bitrate=N/A    frame=   50 fps=8.1 q=24.8 size=N/A time=00:00:00.83 bitrate=N/A    frame=   55 fps=8.2 q=24.8 size=N/A time=00:00:00.91 bitrate=N/A    frame=   60 fps=8.2 q=24.8 size=N/A time=00:00:01.00 bitrate=N/A    frame=   65 fps=8.3 q=24.8 size=N/A time=00:00:01.08 bitrate=N/A    frame=   70 fps=8.3 q=24.8 size=N/A time=00:00:01.16 bitrate=N/A    frame=   75 fps=8.3 q=24.8 size=N/A time=00:00:01.25 bitrate=N/A    frame=   80 fps=8.4 q=24.8 size=N/A time=00:00:01.33 bitrate=N/A    frame=   85 fps=8.4 q=24.8 size=N/A time=00:00:01.41 bitrate=N/A    frame=   90 fps=8.4 q=24.8 size=N/A time=00:00:01.50 bitrate=N/A    frame=   95 fps=8.4 q=24.8 size=N/A time=00:00:01.58 bitrate=N/A    frame=  100 fps=8.5 q=24.8 size=N/A time=00:00:01.66 bitrate=N/A    frame=  105 fps=8.5 q=24.8 size=N/A time=00:00:01.75 bitrate=N/A    frame=  110 fps=8.5 q=24.8 size=N/A time=00:00:01.83 bitrate=N/A    frame=  115 fps=8.5 q=24.8 size=N/A time=00:00:01.91 bitrate=N/A    frame=  120 fps=8.5 q=24.8 size=N/A time=00:00:02.00 bitrate=N/A    frame=  125 fps=8.5 q=24.8 size=N/A time=00:00:02.08 bitrate=N/A    frame=  130 fps=8.5 q=24.8 size=N/A time=00:00:02.16 bitrate=N/A    frame=  135 fps=8.6 q=24.8 size=N/A time=00:00:02.25 bitrate=N/A    frame=  140 fps=8.6 q=24.8 size=N/A time=00:00:02.33 bitrate=N/A    frame=  145 fps=8.6 q=24.8 size=N/A time=00:00:02.41 bitrate=N/A    frame=  150 fps=8.6 q=24.8 size=N/A time=00:00:02.50 bitrate=N/A    frame=  155 fps=8.6 q=24.8 size=N/A time=00:00:02.58 bitrate=N/A    frame=  160 fps=8.6 q=24.8 size=N/A time=00:00:02.66 bitrate=N/A    frame=  165 fps=8.6 q=24.8 size=N/A time=00:00:02.75 bitrate=N/A    frame=  170 fps=8.6 q=24.8 size=N/A time=00:00:02.83 bitrate=N/A    frame=  175 fps=8.6 q=24.8 size=N/A time=00:00:02.91 bitrate=N/A    frame=  180 fps=8.6 q=24.8 size=N/A time=00:00:03.00 bitrate=N/A    frame=  185 fps=8.6 q=24.8 size=N/A time=00:00:03.08 bitrate=N/A    frame=  190 fps=8.6 q=24.8 size=N/A time=00:00:03.16 bitrate=N/A    frame=  195 fps=8.6 q=24.8 size=N/A time=00:00:03.25 bitrate=N/A    frame=  200 fps=8.7 q=24.8 size=N/A time=00:00:03.33 bitrate=N/A    frame=  205 fps=8.7 q=24.8 size=N/A time=00:00:03.42 bitrate=N/A    frame=  210 fps=8.7 q=24.8 size=N/A time=00:00:03.50 bitrate=N/A    frame=  215 fps=8.7 q=24.8 size=N/A time=00:00:03.58 bitrate=N/A    frame=  220 fps=8.7 q=24.8 size=N/A time=00:00:03.67 bitrate=N/A    frame=  225 fps=8.7 q=24.8 size=N/A time=00:00:03.75 bitrate=N/A    frame=  230 fps=8.7 q=24.8 size=N/A time=00:00:03.83 bitrate=N/A    frame=  235 fps=8.7 q=24.8 size=N/A time=00:00:03.92 bitrate=N/A    frame=  240 fps=8.7 q=24.8 size=N/A time=00:00:04.00 bitrate=N/A    frame=  245 fps=8.7 q=24.8 size=N/A time=00:00:04.08 bitrate=N/A    frame=  250 fps=8.7 q=24.8 size=N/A time=00:00:04.17 bitrate=N/A    frame=  255 fps=8.7 q=24.8 size=N/A time=00:00:04.25 bitrate=N/A    frame=  260 fps=8.7 q=24.8 size=N/A time=00:00:04.33 bitrate=N/A    frame=  265 fps=8.7 q=24.8 size=N/A time=00:00:04.42 bitrate=N/A    frame=  270 fps=8.7 q=24.8 size=N/A time=00:00:04.50 bitrate=N/A    frame=  275 fps=8.7 q=24.8 size=N/A time=00:00:04.58 bitrate=N/A    frame=  280 fps=8.7 q=24.8 size=N/A time=00:00:04.67 bitrate=N/A    frame=  285 fps=8.7 q=24.8 size=N/A time=00:00:04.75 bitrate=N/A    frame=  290 fps=8.7 q=24.8 size=N/A time=00:00:04.83 bitrate=N/A    frame=  295 fps=8.7 q=24.8 size=N/A time=00:00:04.92 bitrate=N/A    frame=  300 fps=8.7 q=24.8 size=N/A time=00:00:05.00 bitrate=N/A    frame=  305 fps=8.7 q=24.8 size=N/A time=00:00:05.08 bitrate=N/A    frame=  310 fps=8.7 q=24.8 size=N/A time=00:00:05.17 bitrate=N/A    frame=  315 fps=8.7 q=24.8 size=N/A time=00:00:05.25 bitrate=N/A    frame=  320 fps=8.7 q=24.8 size=N/A time=00:00:05.33 bitrate=N/A    frame=  325 fps=8.7 q=24.8 size=N/A time=00:00:05.42 bitrate=N/A    frame=  330 fps=8.7 q=24.8 size=N/A time=00:00:05.50 bitrate=N/A    frame=  335 fps=8.7 q=24.8 size=N/A time=00:00:05.58 bitrate=N/A    frame=  340 fps=8.7 q=24.8 size=N/A time=00:00:05.67 bitrate=N/A    frame=  345 fps=8.7 q=24.8 size=N/A time=00:00:05.75 bitrate=N/A    frame=  350 fps=8.7 q=24.8 size=N/A time=00:00:05.83 bitrate=N/A    frame=  355 fps=8.7 q=24.8 size=N/A time=00:00:05.92 bitrate=N/A    frame=  360 fps=8.7 q=24.8 size=N/A time=00:00:06.00 bitrate=N/A    frame=  365 fps=8.7 q=24.8 size=N/A time=00:00:06.08 bitrate=N/A    frame=  370 fps=8.7 q=24.8 size=N/A time=00:00:06.17 bitrate=N/A    frame=  375 fps=8.7 q=24.8 size=N/A time=00:00:06.25 bitrate=N/A    frame=  380 fps=8.7 q=24.8 size=N/A time=00:00:06.33 bitrate=N/A    frame=  385 fps=8.7 q=24.8 size=N/A time=00:00:06.42 bitrate=N/A    frame=  390 fps=8.7 q=24.8 size=N/A time=00:00:06.50 bitrate=N/A    frame=  395 fps=8.7 q=24.8 size=N/A time=00:00:06.58 bitrate=N/A    frame=  400 fps=8.7 q=24.8 size=N/A time=00:00:06.67 bitrate=N/A    frame=  405 fps=8.7 q=24.8 size=N/A time=00:00:06.75 bitrate=N/A    frame=  410 fps=8.7 q=24.8 size=N/A time=00:00:06.84 bitrate=N/A    frame=  415 fps=8.7 q=24.8 size=N/A time=00:00:06.92 bitrate=N/A    frame=  420 fps=8.8 q=24.8 size=N/A time=00:00:07.00 bitrate=N/A    frame=  425 fps=8.8 q=24.8 size=N/A time=00:00:07.09 bitrate=N/A    frame=  430 fps=8.8 q=24.8 size=N/A time=00:00:07.17 bitrate=N/A    frame=  435 fps=8.8 q=24.8 size=N/A time=00:00:07.25 bitrate=N/A    frame=  440 fps=8.8 q=24.8 size=N/A time=00:00:07.34 bitrate=N/A    frame=  445 fps=8.8 q=24.8 size=N/A time=00:00:07.42 bitrate=N/A    frame=  450 fps=8.8 q=24.8 size=N/A time=00:00:07.50 bitrate=N/A    frame=  455 fps=8.8 q=24.8 size=N/A time=00:00:07.59 bitrate=N/A    frame=  460 fps=8.8 q=24.8 size=N/A time=00:00:07.67 bitrate=N/A    frame=  465 fps=8.8 q=24.8 size=N/A time=00:00:07.75 bitrate=N/A    frame=  470 fps=8.8 q=24.8 size=N/A time=00:00:07.84 bitrate=N/A    frame=  475 fps=8.8 q=24.8 size=N/A time=00:00:07.92 bitrate=N/A    frame=  480 fps=8.8 q=24.8 size=N/A time=00:00:08.00 bitrate=N/A    frame=  485 fps=8.8 q=24.8 size=N/A time=00:00:08.09 bitrate=N/A    frame=  490 fps=8.8 q=24.8 size=N/A time=00:00:08.17 bitrate=N/A    frame=  495 fps=8.8 q=24.8 size=N/A time=00:00:08.25 bitrate=N/A    frame=  500 fps=8.8 q=24.8 size=N/A time=00:00:08.34 bitrate=N/A    frame=  505 fps=8.8 q=24.8 size=N/A time=00:00:08.42 bitrate=N/A    frame=  510 fps=8.8 q=24.8 size=N/A time=00:00:08.50 bitrate=N/A    frame=  515 fps=8.8 q=24.8 size=N/A time=00:00:08.59 bitrate=N/A    frame=  520 fps=8.8 q=24.8 size=N/A time=00:00:08.67 bitrate=N/A    frame=  525 fps=8.8 q=24.8 size=N/A time=00:00:08.75 bitrate=N/A    frame=  530 fps=8.8 q=24.8 size=N/A time=00:00:08.84 bitrate=N/A    frame=  535 fps=8.8 q=24.8 size=N/A time=00:00:08.92 bitrate=N/A    frame=  540 fps=8.8 q=24.8 size=N/A time=00:00:09.00 bitrate=N/A    frame=  545 fps=8.8 q=24.8 size=N/A time=00:00:09.09 bitrate=N/A    frame=  550 fps=8.8 q=24.8 size=N/A time=00:00:09.17 bitrate=N/A    frame=  555 fps=8.8 q=24.8 size=N/A time=00:00:09.25 bitrate=N/A    frame=  560 fps=8.8 q=24.8 size=N/A time=00:00:09.34 bitrate=N/A    frame=  565 fps=8.8 q=24.8 size=N/A time=00:00:09.42 bitrate=N/A    frame=  570 fps=8.8 q=24.8 size=N/A time=00:00:09.50 bitrate=N/A    frame=  575 fps=8.8 q=24.8 size=N/A time=00:00:09.59 bitrate=N/A    frame=  580 fps=8.8 q=24.8 size=N/A time=00:00:09.67 bitrate=N/A    frame=  585 fps=8.8 q=24.8 size=N/A time=00:00:09.75 bitrate=N/A    frame=  590 fps=8.8 q=24.8 size=N/A time=00:00:09.84 bitrate=N/A    frame=  595 fps=8.8 q=24.8 size=N/A time=00:00:09.92 bitrate=N/A    frame=  600 fps=8.8 q=24.8 size=N/A time=00:00:10.01 bitrate=N/A    frame=  605 fps=8.8 q=24.8 size=N/A time=00:00:10.09 bitrate=N/A    frame=  610 fps=8.8 q=24.8 size=N/A time=00:00:10.17 bitrate=N/A    frame=  615 fps=8.8 q=24.8 size=N/A time=00:00:10.26 bitrate=N/A    frame=  620 fps=8.8 q=24.8 size=N/A time=00:00:10.34 bitrate=N/A    frame=  625 fps=8.8 q=24.8 size=N/A time=00:00:10.42 bitrate=N/A    frame=  629 fps=8.8 q=24.8 size=N/A time=00:00:10.49 bitrate=N/A    frame=  634 fps=8.8 q=24.8 size=N/A time=00:00:10.57 bitrate=N/A    frame=  639 fps=8.8 q=24.8 size=N/A time=00:00:10.66 bitrate=N/A    frame=  644 fps=8.8 q=24.8 size=N/A time=00:00:10.74 bitrate=N/A    frame=  649 fps=8.8 q=24.8 size=N/A time=00:00:10.82 bitrate=N/A    frame=  654 fps=8.8 q=24.8 size=N/A time=00:00:10.91 bitrate=N/A    frame=  659 fps=8.8 q=24.8 size=N/A time=00:00:10.99 bitrate=N/A    frame=  664 fps=8.8 q=24.8 size=N/A time=00:00:11.07 bitrate=N/A    frame=  669 fps=8.8 q=24.8 size=N/A time=00:00:11.16 bitrate=N/A    frame=  674 fps=8.8 q=24.8 size=N/A time=00:00:11.24 bitrate=N/A    frame=  679 fps=8.8 q=24.8 size=N/A time=00:00:11.32 bitrate=N/A    frame=  684 fps=8.8 q=24.8 size=N/A time=00:00:11.41 bitrate=N/A    frame=  689 fps=8.8 q=24.8 size=N/A time=00:00:11.49 bitrate=N/A    frame=  694 fps=8.8 q=24.8 size=N/A time=00:00:11.57 bitrate=N/A    frame=  699 fps=8.8 q=24.8 size=N/A time=00:00:11.66 bitrate=N/A    frame=  704 fps=8.8 q=24.8 size=N/A time=00:00:11.74 bitrate=N/A    frame=  709 fps=8.8 q=24.8 size=N/A time=00:00:11.82 bitrate=N/A    frame=  714 fps=8.8 q=24.8 size=N/A time=00:00:11.91 bitrate=N/A    frame=  719 fps=8.8 q=24.8 size=N/A time=00:00:11.99 bitrate=N/A    frame=  724 fps=8.8 q=24.8 size=N/A time=00:00:12.07 bitrate=N/A    frame=  729 fps=8.8 q=24.8 size=N/A time=00:00:12.16 bitrate=N/A    frame=  734 fps=8.8 q=24.8 size=N/A time=00:00:12.24 bitrate=N/A    frame=  739 fps=8.8 q=24.8 size=N/A time=00:00:12.32 bitrate=N/A    frame=  744 fps=8.8 q=24.8 size=N/A time=00:00:12.41 bitrate=N/A    frame=  749 fps=8.8 q=24.8 size=N/A time=00:00:12.49 bitrate=N/A    frame=  754 fps=8.8 q=24.8 size=N/A time=00:00:12.57 bitrate=N/A    frame=  759 fps=8.8 q=24.8 size=N/A time=00:00:12.66 bitrate=N/A    frame=  764 fps=8.8 q=24.8 size=N/A time=00:00:12.74 bitrate=N/A    frame=  769 fps=8.8 q=24.8 size=N/A time=00:00:12.82 bitrate=N/A    frame=  774 fps=8.8 q=24.8 size=N/A time=00:00:12.91 bitrate=N/A    frame=  779 fps=8.8 q=24.8 size=N/A time=00:00:12.99 bitrate=N/A    frame=  784 fps=8.8 q=24.8 size=N/A time=00:00:13.07 bitrate=N/A    frame=  789 fps=8.8 q=24.8 size=N/A time=00:00:13.16 bitrate=N/A    frame=  794 fps=8.8 q=24.8 size=N/A time=00:00:13.24 bitrate=N/A    frame=  799 fps=8.8 q=24.8 size=N/A time=00:00:13.32 bitrate=N/A    frame=  804 fps=8.8 q=24.8 size=N/A time=00:00:13.41 bitrate=N/A    frame=  809 fps=8.8 q=24.8 size=N/A time=00:00:13.49 bitrate=N/A    frame=  814 fps=8.8 q=24.8 size=N/A time=00:00:13.58 bitrate=N/A    frame=  819 fps=8.8 q=24.8 size=N/A time=00:00:13.66 bitrate=N/A    frame=  824 fps=8.8 q=24.8 size=N/A time=00:00:13.74 bitrate=N/A    frame=  829 fps=8.8 q=24.8 size=N/A time=00:00:13.83 bitrate=N/A    frame=  834 fps=8.8 q=24.8 size=N/A time=00:00:13.91 bitrate=N/A    frame=  839 fps=8.8 q=24.8 size=N/A time=00:00:13.99 bitrate=N/A    frame=  844 fps=8.8 q=24.8 size=N/A time=00:00:14.08 bitrate=N/A    frame=  849 fps=8.8 q=24.8 size=N/A time=00:00:14.16 bitrate=N/A    frame=  854 fps=8.8 q=24.8 size=N/A time=00:00:14.24 bitrate=N/A    frame=  859 fps=8.8 q=24.8 size=N/A time=00:00:14.33 bitrate=N/A    frame=  864 fps=8.8 q=24.8 size=N/A time=00:00:14.41 bitrate=N/A    frame=  869 fps=8.8 q=24.8 size=N/A time=00:00:14.49 bitrate=N/A    frame=  874 fps=8.8 q=24.8 size=N/A time=00:00:14.58 bitrate=N/A    frame=  879 fps=8.8 q=24.8 size=N/A time=00:00:14.66 bitrate=N/A    frame=  884 fps=8.8 q=24.8 size=N/A time=00:00:14.74 bitrate=N/A    frame=  889 fps=8.8 q=24.8 size=N/A time=00:00:14.83 bitrate=N/A    frame=  894 fps=8.8 q=24.8 size=N/A time=00:00:14.91 bitrate=N/A    frame=  899 fps=8.8 q=24.8 size=N/A time=00:00:14.99 bitrate=N/A    frame=  904 fps=8.8 q=24.8 size=N/A time=00:00:15.08 bitrate=N/A    frame=  909 fps=8.8 q=24.8 size=N/A time=00:00:15.16 bitrate=N/A    frame=  914 fps=8.8 q=24.8 size=N/A time=00:00:15.24 bitrate=N/A    frame=  919 fps=8.8 q=24.8 size=N/A time=00:00:15.33 bitrate=N/A    frame=  924 fps=8.8 q=24.8 size=N/A time=00:00:15.41 bitrate=N/A    frame=  929 fps=8.8 q=24.8 size=N/A time=00:00:15.49 bitrate=N/A    frame=  934 fps=8.8 q=24.8 size=N/A time=00:00:15.58 bitrate=N/A    frame=  939 fps=8.8 q=24.8 size=N/A time=00:00:15.66 bitrate=N/A    frame=  944 fps=8.8 q=24.8 size=N/A time=00:00:15.74 bitrate=N/A    frame=  949 fps=8.8 q=24.8 size=N/A time=00:00:15.83 bitrate=N/A    frame=  954 fps=8.8 q=24.8 size=N/A time=00:00:15.91 bitrate=N/A    frame=  959 fps=8.8 q=24.8 size=N/A time=00:00:15.99 bitrate=N/A    frame=  964 fps=8.8 q=24.8 size=N/A time=00:00:16.08 bitrate=N/A    frame=  969 fps=8.8 q=24.8 size=N/A time=00:00:16.16 bitrate=N/A    frame=  974 fps=8.8 q=24.8 size=N/A time=00:00:16.24 bitrate=N/A    frame=  979 fps=8.8 q=24.8 size=N/A time=00:00:16.33 bitrate=N/A    frame=  984 fps=8.8 q=24.8 size=N/A time=00:00:16.41 bitrate=N/A    frame=  989 fps=8.8 q=24.8 size=N/A time=00:00:16.49 bitrate=N/A    frame=  994 fps=8.8 q=24.8 size=N/A time=00:00:16.58 bitrate=N/A    frame=  999 fps=8.8 q=24.8 size=N/A time=00:00:16.66 bitrate=N/A    frame= 1004 fps=8.8 q=24.8 size=N/A time=00:00:16.75 bitrate=N/A    frame= 1009 fps=8.8 q=24.8 size=N/A time=00:00:16.83 bitrate=N/A    frame= 1014 fps=8.8 q=24.8 size=N/A time=00:00:16.91 bitrate=N/A    frame= 1019 fps=8.8 q=24.8 size=N/A time=00:00:17.00 bitrate=N/A    frame= 1024 fps=8.8 q=24.8 size=N/A time=00:00:17.08 bitrate=N/A    frame= 1029 fps=8.8 q=24.8 size=N/A time=00:00:17.16 bitrate=N/A    frame= 1034 fps=8.8 q=24.8 size=N/A time=00:00:17.25 bitrate=N/A    frame= 1039 fps=8.8 q=24.8 size=N/A time=00:00:17.33 bitrate=N/A    frame= 1044 fps=8.8 q=24.8 size=N/A time=00:00:17.41 bitrate=N/A    frame= 1049 fps=8.8 q=24.8 size=N/A time=00:00:17.50 bitrate=N/A    frame= 1054 fps=8.8 q=24.8 size=N/A time=00:00:17.58 bitrate=N/A    frame= 1059 fps=8.8 q=24.8 size=N/A time=00:00:17.66 bitrate=N/A    frame= 1064 fps=8.8 q=24.8 size=N/A time=00:00:17.75 bitrate=N/A    frame= 1069 fps=8.8 q=24.8 size=N/A time=00:00:17.83 bitrate=N/A    frame= 1074 fps=8.8 q=24.8 size=N/A time=00:00:17.91 bitrate=N/A    frame= 1079 fps=8.8 q=24.8 size=N/A time=00:00:18.00 bitrate=N/A    frame= 1084 fps=8.8 q=24.8 size=N/A time=00:00:18.08 bitrate=N/A    frame= 1089 fps=8.8 q=24.8 size=N/A time=00:00:18.16 bitrate=N/A    frame= 1094 fps=8.8 q=24.8 size=N/A time=00:00:18.25 bitrate=N/A    frame= 1099 fps=8.8 q=24.8 size=N/A time=00:00:18.33 bitrate=N/A    frame= 1104 fps=8.8 q=24.8 size=N/A time=00:00:18.41 bitrate=N/A    frame= 1109 fps=8.8 q=24.8 size=N/A time=00:00:18.50 bitrate=N/A    frame= 1114 fps=8.8 q=24.8 size=N/A time=00:00:18.58 bitrate=N/A    frame= 1119 fps=8.8 q=24.8 size=N/A time=00:00:18.66 bitrate=N/A    frame= 1124 fps=8.8 q=24.8 size=N/A time=00:00:18.75 bitrate=N/A    frame= 1129 fps=8.8 q=24.8 size=N/A time=00:00:18.83 bitrate=N/A    frame= 1134 fps=8.8 q=24.8 size=N/A time=00:00:18.91 bitrate=N/A    frame= 1139 fps=8.8 q=24.8 size=N/A time=00:00:19.00 bitrate=N/A    frame= 1144 fps=8.8 q=24.8 size=N/A time=00:00:19.08 bitrate=N/A    frame= 1149 fps=8.8 q=24.8 size=N/A time=00:00:19.16 bitrate=N/A    frame= 1154 fps=8.8 q=24.8 size=N/A time=00:00:19.25 bitrate=N/A    frame= 1159 fps=8.8 q=24.8 size=N/A time=00:00:19.33 bitrate=N/A    frame= 1164 fps=8.8 q=24.8 size=N/A time=00:00:19.41 bitrate=N/A    frame= 1169 fps=8.8 q=24.8 size=N/A time=00:00:19.50 bitrate=N/A    frame= 1174 fps=8.8 q=24.8 size=N/A time=00:00:19.58 bitrate=N/A    frame= 1179 fps=8.8 q=24.8 size=N/A time=00:00:19.66 bitrate=N/A    frame= 1184 fps=8.8 q=24.8 size=N/A time=00:00:19.75 bitrate=N/A    frame= 1189 fps=8.8 q=24.8 size=N/A time=00:00:19.83 bitrate=N/A    frame= 1194 fps=8.8 q=24.8 size=N/A time=00:00:19.91 bitrate=N/A    frame= 1199 fps=8.8 q=24.8 size=N/A time=00:00:20.00 bitrate=N/A    frame= 1204 fps=8.8 q=24.8 size=N/A time=00:00:20.08 bitrate=N/A    frame= 1209 fps=8.8 q=24.8 size=N/A time=00:00:20.17 bitrate=N/A    frame= 1214 fps=8.8 q=24.8 size=N/A time=00:00:20.25 bitrate=N/A    frame= 1219 fps=8.8 q=24.8 size=N/A time=00:00:20.33 bitrate=N/A    frame= 1224 fps=8.8 q=24.8 size=N/A time=00:00:20.42 bitrate=N/A    frame= 1229 fps=8.8 q=24.8 size=N/A time=00:00:20.50 bitrate=N/A    frame= 1234 fps=8.8 q=24.8 size=N/A time=00:00:20.58 bitrate=N/A    frame= 1239 fps=8.8 q=24.8 size=N/A time=00:00:20.67 bitrate=N/A    frame= 1244 fps=8.8 q=24.8 size=N/A time=00:00:20.75 bitrate=N/A    frame= 1249 fps=8.8 q=24.8 size=N/A time=00:00:20.83 bitrate=N/A    frame= 1254 fps=8.8 q=24.8 size=N/A time=00:00:20.92 bitrate=N/A    frame= 1259 fps=8.8 q=24.8 size=N/A time=00:00:21.00 bitrate=N/A    frame= 1264 fps=8.8 q=24.8 size=N/A time=00:00:21.08 bitrate=N/A    frame= 1269 fps=8.8 q=24.8 size=N/A time=00:00:21.17 bitrate=N/A    frame= 1274 fps=8.8 q=24.8 size=N/A time=00:00:21.25 bitrate=N/A    frame= 1279 fps=8.8 q=24.8 size=N/A time=00:00:21.33 bitrate=N/A    frame= 1284 fps=8.8 q=24.8 size=N/A time=00:00:21.42 bitrate=N/A    frame= 1289 fps=8.8 q=24.8 size=N/A time=00:00:21.50 bitrate=N/A    frame= 1294 fps=8.8 q=24.8 size=N/A time=00:00:21.58 bitrate=N/A    frame= 1299 fps=8.8 q=24.8 size=N/A time=00:00:21.67 bitrate=N/A    frame= 1304 fps=8.8 q=24.8 size=N/A time=00:00:21.75 bitrate=N/A    frame= 1309 fps=8.8 q=24.8 size=N/A time=00:00:21.83 bitrate=N/A    frame= 1314 fps=8.8 q=24.8 size=N/A time=00:00:21.92 bitrate=N/A    frame= 1319 fps=8.8 q=24.8 size=N/A time=00:00:22.00 bitrate=N/A    frame= 1324 fps=8.8 q=24.8 size=N/A time=00:00:22.08 bitrate=N/A    frame= 1329 fps=8.8 q=24.8 size=N/A time=00:00:22.17 bitrate=N/A    frame= 1334 fps=8.8 q=24.8 size=N/A time=00:00:22.25 bitrate=N/A    frame= 1339 fps=8.8 q=24.8 size=N/A time=00:00:22.33 bitrate=N/A    frame= 1344 fps=8.8 q=24.8 size=N/A time=00:00:22.42 bitrate=N/A    frame= 1349 fps=8.8 q=24.8 size=N/A time=00:00:22.50 bitrate=N/A    frame= 1354 fps=8.8 q=24.8 size=N/A time=00:00:22.58 bitrate=N/A    frame= 1356 fps=8.8 q=24.8 Lsize=N/A time=00:00:22.62 bitrate=N/A    
video:962010kB audio:0kB subtitle:0kB other streams:0kB global headers:0kB muxing overhead: unknown
+ turkic load DJI_0009_valtok_homokmegy_20180518_napos_kalaszos_T3 /home/horvathandras/vatic/vatic/videos/DJI_0009_valtok_homokmegy_20180518_napos_kalaszos_T3 $'Pozit\303\255vROI' $'Negat\303\255vROI' $'T\303\272r\303\241s' '~Friss' '~1-2Hetes' '~Régebbi' '~Egyéb1' '~Egyéb2' '~Egyéb3' $'R\303\241g\303\241s' '~Friss' '~1-2Hetes' '~Régebbi' '~Egyéb1' '~Egyéb2' '~Egyéb3' $'T\303\266r\303\251s' '~Friss' '~1-2Hetes' '~Régebbi' '~Egyéb1' '~Egyéb2' '~Egyéb3' $'Tapos\303\241s' '~Friss' '~1-2Hetes' '~Régebbi' '~Egyéb1' '~Egyéb2' '~Egyéb3' $'Eg\303\251szs\303\251gesN\303\266v\303\251ny' $'Egy\303\251b1' $'Egy\303\251b2' $'Egy\303\251b3' $'Egy\303\251b4' $'Egy\303\251b5' Bizonytalan $'M\305\261vel\305\221\303\272t' $'Gktapos\303\241s' $'Vet\305\221hiba' $'Sz\303\251ld\303\266nt\303\251s' $'J\303\251gk\303\241r' $'Belv\303\255z' $'Asz\303\241ly' $'Er\303\263zi\303\263' $'Egyszik\305\261Gyom' $'K\303\251tszik\305\261Gyom' $'Egy\303\251bN\303\266vv\303\251delmiPR' --offline --title '$filenameNoDot Video' --length 1000 --description 'vatic annotation'
+ turkic publish --offline
+ mkdir /home/horvathandras/vatic/vatic/public/videothumbnails/DJI_0009_valtok_homokmegy_20180518_napos_kalaszos_T3
+ cp /home/horvathandras/vatic/vatic/videos/DJI_0009_valtok_homokmegy_20180518_napos_kalaszos_T3/0/0/31.jpg /home/horvathandras/vatic/vatic/public/videothumbnails/DJI_0009_valtok_homokmegy_20180518_napos_kalaszos_T3/thumb.jpg
